<?xml version="1.0" encoding="UTF-8" standalone="no"?>
<!DOCTYPE svg PUBLIC "-//W3C//DTD SVG 1.1//EN"
 "http://www.w3.org/Graphics/SVG/1.1/DTD/svg11.dtd">
<!-- Generated by graphviz version 15.0.0 (20260523.1842)
 -->
<!-- Title: G Pages: 1 -->
<svg width="673pt" height="44pt"
 viewBox="0.00 0.00 673.00 44.00" xmlns="http://www.w3.org/2000/svg" xmlns:xlink="http://www.w3.org/1999/xlink">
<g id="graph0" class="graph" transform="scale(1 1) rotate(0) translate(4 40)">
<title>G</title>
<polygon fill="white" stroke="none" points="-4,4 -4,-40 668.5,-40 668.5,4 -4,4"/>
<!-- mcp -->
<g id="node1" class="node">
<title>mcp</title>
<path fill="#eceff1" stroke="#546e7a" stroke-width="2" d="M87.25,-36C87.25,-36 12,-36 12,-36 6,-36 0,-30 0,-24 0,-24 0,-12 0,-12 0,-6 6,0 12,0 12,0 87.25,0 87.25,0 93.25,0 99.25,-6 99.25,-12 99.25,-12 99.25,-24 99.25,-24 99.25,-30 93.25,-36 87.25,-36"/>
<text xml:space="preserve" text-anchor="middle" x="49.62" y="-19.55" font-family="Helvetica,sans-Serif" font-size="11.00">Raw MCP Specs</text>
<text xml:space="preserve" text-anchor="middle" x="49.62" y="-7.55" font-family="Helvetica,sans-Serif" font-size="11.00">(tools/list)</text>
</g>
<!-- stage1 -->
<g id="node2" class="node">
<title>stage1</title>
<path fill="#e3f2fd" stroke="#1e88e5" d="M203,-36C203,-36 147.25,-36 147.25,-36 141.25,-36 135.25,-30 135.25,-24 135.25,-24 135.25,-12 135.25,-12 135.25,-6 141.25,0 147.25,0 147.25,0 203,0 203,0 209,0 215,-6 215,-12 215,-12 215,-24 215,-24 215,-30 209,-36 203,-36"/>
<text xml:space="preserve" text-anchor="middle" x="175.12" y="-19.55" font-family="Helvetica,sans-Serif" font-size="11.00">Stage 1:</text>
<text xml:space="preserve" text-anchor="middle" x="175.12" y="-7.55" font-family="Helvetica,sans-Serif" font-size="11.00">Interpretation</text>
</g>
<!-- mcp&#45;&gt;stage1 -->
<g id="edge1" class="edge">
<title>mcp&#45;&gt;stage1</title>
<path fill="none" stroke="black" d="M100.15,-18C107.81,-18 115.74,-18 123.43,-18"/>
<polygon fill="black" stroke="black" points="123.34,-21.5 133.34,-18 123.34,-14.5 123.34,-21.5"/>
</g>
<!-- stage2 -->
<g id="node3" class="node">
<title>stage2</title>
<path fill="#ede7f6" stroke="#5e35b1" d="M321,-36C321,-36 263,-36 263,-36 257,-36 251,-30 251,-24 251,-24 251,-12 251,-12 251,-6 257,0 263,0 263,0 321,0 321,0 327,0 333,-6 333,-12 333,-12 333,-24 333,-24 333,-30 327,-36 321,-36"/>
<text xml:space="preserve" text-anchor="middle" x="292" y="-19.55" font-family="Helvetica,sans-Serif" font-size="11.00">Stage 2:</text>
<text xml:space="preserve" text-anchor="middle" x="292" y="-7.55" font-family="Helvetica,sans-Serif" font-size="11.00">Scenario Gen</text>
</g>
<!-- stage1&#45;&gt;stage2 -->
<g id="edge2" class="edge">
<title>stage1&#45;&gt;stage2</title>
<path fill="none" stroke="black" d="M215.34,-18C223.11,-18 231.38,-18 239.5,-18"/>
<polygon fill="black" stroke="black" points="239.28,-21.5 249.28,-18 239.28,-14.5 239.28,-21.5"/>
</g>
<!-- stage3 -->
<g id="node4" class="node">
<title>stage3</title>
<path fill="#e8f5e9" stroke="#43a047" d="M439,-36C439,-36 381,-36 381,-36 375,-36 369,-30 369,-24 369,-24 369,-12 369,-12 369,-6 375,0 381,0 381,0 439,0 439,0 445,0 451,-6 451,-12 451,-12 451,-24 451,-24 451,-30 445,-36 439,-36"/>
<text xml:space="preserve" text-anchor="middle" x="410" y="-19.55" font-family="Helvetica,sans-Serif" font-size="11.00">Stage 3:</text>
<text xml:space="preserve" text-anchor="middle" x="410" y="-7.55" font-family="Helvetica,sans-Serif" font-size="11.00">Mock Outputs</text>
</g>
<!-- stage2&#45;&gt;stage3 -->
<g id="edge3" class="edge">
<title>stage2&#45;&gt;stage3</title>
<path fill="none" stroke="black" d="M333.25,-18C341.07,-18 349.38,-18 357.51,-18"/>
<polygon fill="black" stroke="black" points="357.31,-21.5 367.31,-18 357.31,-14.5 357.31,-21.5"/>
</g>
<!-- stage4 -->
<g id="node5" class="node">
<title>stage4</title>
<path fill="#fff3e0" stroke="#fb8c00" d="M539.75,-36C539.75,-36 499,-36 499,-36 493,-36 487,-30 487,-24 487,-24 487,-12 487,-12 487,-6 493,0 499,0 499,0 539.75,0 539.75,0 545.75,0 551.75,-6 551.75,-12 551.75,-12 551.75,-24 551.75,-24 551.75,-30 545.75,-36 539.75,-36"/>
<text xml:space="preserve" text-anchor="middle" x="519.38" y="-19.55" font-family="Helvetica,sans-Serif" font-size="11.00">Stage 4:</text>
<text xml:space="preserve" text-anchor="middle" x="519.38" y="-7.55" font-family="Helvetica,sans-Serif" font-size="11.00">Multi&#45;Turn</text>
</g>
<!-- stage3&#45;&gt;stage4 -->
<g id="edge4" class="edge">
<title>stage3&#45;&gt;stage4</title>
<path fill="none" stroke="black" d="M451.29,-18C459.12,-18 467.37,-18 475.29,-18"/>
<polygon fill="black" stroke="black" points="475.07,-21.5 485.07,-18 475.07,-14.5 475.07,-21.5"/>
</g>
<!-- eval -->
<g id="node6" class="node">
<title>eval</title>
<path fill="#ffebee" stroke="#e53935" stroke-width="2" d="M652.5,-36C652.5,-36 599.75,-36 599.75,-36 593.75,-36 587.75,-30 587.75,-24 587.75,-24 587.75,-12 587.75,-12 587.75,-6 593.75,0 599.75,0 599.75,0 652.5,0 652.5,0 658.5,0 664.5,-6 664.5,-12 664.5,-12 664.5,-24 664.5,-24 664.5,-30 658.5,-36 652.5,-36"/>
<text xml:space="preserve" text-anchor="middle" x="626.12" y="-19.55" font-family="Helvetica,sans-Serif" font-size="11.00">Evaluation &amp;</text>
<text xml:space="preserve" text-anchor="middle" x="626.12" y="-7.55" font-family="Helvetica,sans-Serif" font-size="11.00">Rubric</text>
</g>
<!-- stage4&#45;&gt;eval -->
<g id="edge5" class="edge">
<title>stage4&#45;&gt;eval</title>
<path fill="none" stroke="black" d="M552.09,-18C559.45,-18 567.46,-18 575.39,-18"/>
<polygon fill="black" stroke="black" points="575.36,-21.5 585.36,-18 575.36,-14.5 575.36,-21.5"/>
</g>
</g>
</svg>
